<svg width="178" height="59" viewBox="0 0 178 59" xmlns="http://www.w3.org/2000/svg"><title>Slice 1</title><g fill="none" fill-rule="evenodd"><path d="M36.697 47.01c-4.074 0-7.307-1.23-9.699-3.696-2.397-2.465-3.594-5.931-3.594-10.395 0-4.31 1.201-7.747 3.602-10.31 2.402-2.561 5.64-3.84 9.708-3.84 1.084 0 2.056.06 2.92.183.86.119 1.688.29 2.48.509.62.182 1.292.432 2.02.749.73.317 1.323.589 1.772.82v6.478h-.69c-.33-.293-.745-.641-1.244-1.046a15.297 15.297 0 0 0-1.692-1.188 11.174 11.174 0 0 0-2.088-.99 6.987 6.987 0 0 0-2.376-.41c-.984 0-1.887.157-2.705.465-.823.312-1.602.849-2.34 1.615-.683.692-1.238 1.628-1.669 2.806-.432 1.179-.647 2.57-.647 4.173 0 1.69.226 3.108.674 4.258.451 1.147 1.04 2.075 1.765 2.778a6.467 6.467 0 0 0 2.362 1.479 7.852 7.852 0 0 0 2.596.453c.9 0 1.753-.146 2.568-.44.816-.292 1.5-.623 2.058-.984a13.275 13.275 0 0 0 1.606-1.137 56.49 56.49 0 0 0 1.202-1.026h.62v6.367c-.5.23-1.075.496-1.732.79-.66.297-1.333.552-2.025.757-.848.255-1.648.449-2.389.58-.74.134-1.762.202-3.063.202M68.441 46.46h-6.377V36.323c0-.822-.03-1.644-.098-2.464-.068-.819-.197-1.42-.379-1.81-.22-.462-.533-.795-.95-.99-.417-.2-.974-.304-1.67-.304-.524 0-1.056.098-1.595.292-.537.194-1.112.505-1.724.928V46.46h-6.375V18.092h6.375v10.17c1.045-.888 2.063-1.579 3.053-2.078.99-.497 2.086-.747 3.288-.747 2.091 0 3.685.66 4.793 1.978 1.104 1.316 1.66 3.225 1.66 5.727V46.46zM85.48 33.584c-.037-1.36-.354-2.397-.944-3.11-.59-.713-1.496-1.067-2.719-1.067-1.245 0-2.218.375-2.918 1.123-.7.746-1.09 1.765-1.162 3.054h7.743zM83.353 47.01c-3.862 0-6.825-.922-8.884-2.772-2.058-1.846-3.088-4.477-3.088-7.892 0-3.341.959-6.008 2.882-8.002 1.92-1.991 4.605-2.991 8.06-2.991 3.138 0 5.495.846 7.076 2.535 1.58 1.686 2.368 4.1 2.368 7.245v2.296h-14.01c.057.96.257 1.762.6 2.408.341.647.79 1.163 1.35 1.541.544.384 1.188.66 1.92.825.726.165 1.523.25 2.39.25.74 0 1.47-.087 2.189-.252.718-.169 1.376-.39 1.972-.663a13.016 13.016 0 0 0 1.448-.767c.448-.273.808-.514 1.088-.728h.674v5.271c-.519.207-1 .396-1.43.575-.43.175-1.02.355-1.773.538a18.3 18.3 0 0 1-2.144.43c-.734.103-1.632.154-2.688.154zM101.712 47.01a17.87 17.87 0 0 1-4.271-.495c-1.343-.324-2.45-.71-3.322-1.147v-5.41h.526c.305.233.65.488 1.038.767.387.279.925.57 1.618.873.596.28 1.264.52 2.008.724a9.476 9.476 0 0 0 2.427.298c.899 0 1.688-.138 2.37-.412.687-.28 1.029-.716 1.029-1.313 0-.475-.156-.834-.47-1.076-.32-.242-.927-.47-1.841-.693a36.264 36.264 0 0 0-1.838-.39 16.743 16.743 0 0 1-1.961-.483c-1.603-.496-2.805-1.232-3.613-2.212-.806-.978-1.21-2.261-1.21-3.847 0-.913.21-1.771.63-2.58.42-.805 1.035-1.524 1.85-2.156.816-.618 1.818-1.108 3.014-1.474 1.199-.364 2.548-.546 4.059-.546 1.43 0 2.748.14 3.952.426 1.2.287 2.219.628 3.043 1.03v5.17h-.51a11.263 11.263 0 0 0-1.037-.675 13.384 13.384 0 0 0-1.384-.73 9.44 9.44 0 0 0-1.79-.596 8.845 8.845 0 0 0-2.031-.235c-.922 0-1.702.158-2.337.469-.637.31-.954.725-.954 1.236 0 .464.152.828.469 1.093.314.27 1 .529 2.057.784.546.136 1.172.264 1.882.394.712.124 1.394.299 2.045.516 1.469.476 2.582 1.17 3.34 2.087.758.916 1.139 2.132 1.139 3.647 0 .96-.228 1.873-.676 2.742a6.228 6.228 0 0 1-1.91 2.193c-.875.645-1.902 1.14-3.087 1.494-1.186.35-2.603.527-4.254.527M121.332 47.01c-1.507 0-2.932-.166-4.273-.495-1.342-.324-2.451-.71-3.323-1.147v-5.41h.526c.302.233.65.488 1.039.767.388.279.927.57 1.619.873.591.28 1.262.52 2.006.724.75.197 1.555.298 2.431.298.895 0 1.685-.138 2.37-.412.683-.28 1.028-.716 1.028-1.313 0-.475-.159-.834-.476-1.076-.314-.242-.926-.47-1.834-.693a38.261 38.261 0 0 0-1.838-.39c-.74-.14-1.396-.302-1.966-.483-1.6-.496-2.806-1.232-3.609-2.212-.809-.978-1.212-2.261-1.212-3.847 0-.913.209-1.771.628-2.58.421-.805 1.036-1.524 1.852-2.156.817-.618 1.818-1.108 3.016-1.474 1.198-.364 2.549-.546 4.055-.546 1.436 0 2.754.14 3.953.426 1.207.287 2.221.628 3.044 1.03v5.17h-.509c-.216-.167-.564-.391-1.037-.675-.47-.282-.937-.528-1.383-.73a9.399 9.399 0 0 0-1.795-.596 8.778 8.778 0 0 0-2.027-.235c-.924 0-1.703.158-2.342.469-.634.31-.953.725-.953 1.236 0 .464.156.828.469 1.093.319.27 1.007.529 2.059.784.545.136 1.172.264 1.881.394.714.124 1.394.299 2.049.516 1.466.476 2.579 1.17 3.339 2.087.758.916 1.139 2.132 1.139 3.647a5.88 5.88 0 0 1-.677 2.742 6.234 6.234 0 0 1-1.911 2.193c-.873.645-1.906 1.14-3.086 1.494-1.184.35-2.604.527-4.252.527M132.391 46.46h2.75v-3.278h-2.75zM142.193 46.741c-.889 0-1.704-.137-2.445-.41a5.028 5.028 0 0 1-1.914-1.242c-.532-.558-.946-1.257-1.242-2.102-.29-.843-.438-1.836-.438-2.979 0-1.134.151-2.112.461-2.938.303-.825.711-1.517 1.22-2.084a5.062 5.062 0 0 1 1.906-1.297 6.537 6.537 0 0 1 2.452-.46c.712 0 1.398.1 2.055.301.662.2 1.252.431 1.767.692v2.44h-.129a8.91 8.91 0 0 0-.594-.447 8.06 8.06 0 0 0-.888-.512 6.025 6.025 0 0 0-1.069-.399 4.504 4.504 0 0 0-1.186-.172c-1.126 0-2.036.425-2.72 1.275-.685.85-1.027 2.05-1.027 3.601 0 1.523.332 2.707.99 3.556.664.852 1.582 1.274 2.757 1.274.716 0 1.39-.145 2.031-.437a6.125 6.125 0 0 0 1.706-1.126h.13v2.45a34.61 34.61 0 0 1-.812.365 5.974 5.974 0 0 1-.879.317c-.372.107-.704.188-.997.25a6.274 6.274 0 0 1-1.135.084M156.77 40.023c0-1.654-.308-2.878-.913-3.685-.61-.803-1.48-1.206-2.603-1.206-1.132 0-2.006.403-2.615 1.206-.618.807-.923 2.031-.923 3.685 0 1.598.305 2.812.922 3.637.61.825 1.483 1.241 2.615 1.241 1.117 0 1.986-.407 2.599-1.217.61-.81.918-2.032.918-3.66m2.245 0c0 2.164-.524 3.834-1.573 5.014-1.049 1.176-2.445 1.766-4.189 1.766-1.794 0-3.211-.607-4.24-1.824-1.029-1.217-1.547-2.87-1.547-4.957 0-2.15.534-3.822 1.593-5.01 1.063-1.19 2.459-1.784 4.195-1.784 1.744 0 3.14.594 4.188 1.777 1.048 1.186 1.573 2.86 1.573 5.017M175.287 46.46v-7.447c0-.593-.025-1.139-.072-1.644-.047-.5-.143-.895-.289-1.182a1.458 1.458 0 0 0-.658-.678c-.284-.149-.669-.22-1.154-.22-.448 0-.925.137-1.438.41-.51.276-1.04.672-1.586 1.191.008.133.015.285.03.467.011.18.015.395.015.637v8.466h-2.182v-7.447c0-.593-.022-1.139-.07-1.644-.048-.5-.145-.895-.287-1.182a1.49 1.49 0 0 0-.657-.678c-.289-.149-.673-.22-1.156-.22-.47 0-.965.148-1.477.442a7.618 7.618 0 0 0-1.5 1.125v9.604h-2.186V33.573h2.185v1.446c.57-.569 1.13-1.008 1.693-1.322a3.712 3.712 0 0 1 1.846-.468c.76 0 1.44.174 2.027.521.592.348 1.04.917 1.35 1.707.656-.73 1.295-1.283 1.916-1.659a3.863 3.863 0 0 1 2.04-.569c.551 0 1.057.087 1.512.26.455.173.852.452 1.192.835.347.392.616.88.804 1.466.19.581.285 1.316.285 2.2v8.47h-2.183z" fill="#FFF"/><path d="M29.785 17.313a14.374 14.374 0 0 0-4.81 3.397c-2.887 3.082-4.353 7.189-4.353 12.208 0 5.193 1.476 9.344 4.381 12.334 2.86 2.942 6.682 4.465 11.366 4.531 1.507.865 2.365 1.858 2.365 2.916 0 .751-.447 1.466-1.232 2.123-1.192 1.008-3.186 1.886-5.75 2.555-.123.028-.259.061-.385.089-3.215.794-7.242 1.269-11.633 1.269-4.389 0-8.416-.475-11.633-1.269-.128-.028-.259-.061-.384-.089-2.568-.669-4.555-1.547-5.746-2.555-.79-.657-1.234-1.372-1.234-2.123 0-1.478 1.676-2.828 4.45-3.878-1.373-.864-2.164-1.857-2.164-2.918-.095-.632-.005-1.172.218-1.646 1.371-3.014 8.212-3.277 9.68-5.681 1.9-3.811 2.278-13.963 2.472-17.005-5.169-.471-6.72-1.03-6.72-2.539 0-1.28.436-1.975 4.368-2.578 0 0 .351-.091.974-.202a9.215 9.215 0 0 1-3.075-6.909c0-3.811 2.267-7.07 5.478-8.425a8.489 8.489 0 0 1 3.316-.677c1.174 0 2.293.244 3.32.677 3.21 1.355 5.473 4.614 5.473 8.425 0 2.778-1.199 5.256-3.09 6.927.327.054.656.109.99.184 1.674.258 2.715.531 3.358.859" fill="#4A7036"/><path d="M19.734.241c1.174 0 2.293.244 3.318.677 2.262 1.095 6.01 10.596-2.055 15.662 0 0 3.214.666 3.214 2.452 0 2.01-3.643 2.54-3.643 2.54 0 2.786-2.893 21.394-3.357 23.983-.776 4.333-4.022 5.668-4.022 5.668s.777 1.577.777 2.018c0 2.382-.574 4.362-5.607 4.284-.085-.02-.174-.038-.258-.059-.129-.028-.26-.06-.385-.089-2.567-.669-4.554-1.547-5.746-2.555C1.18 54.164.737 53.45.737 52.7c0-1.479 1.676-2.828 4.45-3.878-1.373-.865-2.164-1.857-2.164-2.918-.096-.632-.005-1.172.218-1.646 1.371-3.014 8.212-3.278 9.68-5.682 1.9-3.81 2.278-13.962 2.472-17.004-5.169-.472-6.722-1.03-6.722-2.539 0-1.28.438-1.975 4.37-2.579 0 0 .351-.09.974-.2a9.213 9.213 0 0 1-3.075-6.91c0-3.81 2.267-7.07 5.478-8.425a8.489 8.489 0 0 1 3.316-.677" fill="#648B3E"/></g></svg>